<svg xmlns="http://www.w3.org/2000/svg" viewBox="0 0 24 24" width="48" height="48" fill="#3498db">
  <path d="M19.77,7.23l0.01-0.01l-3.72-3.72L15,4.56l2.11,2.11c-0.94,0.36-1.61,1.26-1.61,2.33 c0,1.38,1.12,2.5,2.5,2.5s2.5-1.12,2.5-2.5c0-0.94-0.53-1.76-1.29-2.18L19.77,7.23z M8,4h8v3h-8V4z M19,12c-1.66,0-3-1.34-3-3 c0-0.35,0.07-0.69,0.18-1H8.82C8.93,8.31,9,8.65,9,9c0,1.66-1.34,3-3,3s-3-1.34-3-3s1.34-3,3-3c0.35,0,0.69,0.07,1,0.18V4 c0-1.11,0.89-2,2-2h8c1.11,0,2,0.89,2,2v0.18c0.31-0.11,0.65-0.18,1-0.18c1.66,0,3,1.34,3,3S20.66,12,19,12z M8,19L4,23l1.41,1.41 L9,19.83V22h2v-5H6v2H8z M16,19h3v2c0,0.55,0.45,1,1,1s1-0.45,1-1v-2.18c1.17-0.41,2-1.52,2-2.82c0-1.66-1.34-3-3-3 c-1.3,0-2.4,0.84-2.82,2H16V19z"/>
</svg> 