<svg xmlns="http://www.w3.org/2000/svg" viewBox="0 0 24 24" width="48" height="48" fill="#3498db">
  <path d="M22.7,19l-9.1-9.1c0.9-2.3,0.4-5-1.5-6.9c-2-2-5-2.4-7.4-1.3L9,6L6,9L1.6,4.7C0.4,7.1,0.9,10.1,2.9,12.1c1.9,1.9,4.6,2.4,6.9,1.5l9.1,9.1c0.4,0.4,1,0.4,1.4,0l2.3-2.3C23.1,20,23.1,19.3,22.7,19z M19.6,20.6L10.5,11.5c-0.7,0.3-1.4,0.4-2.1,0.4c-1.5,0-2.9-0.6-4-1.7c-1.6-1.6-1.9-4.1-1-6.2L7.1,7.7l-2.8,2.8L4.4,10.4c-1.1,1.1-1.1,2.8,0,3.9L6,16 l-1.4,1.4c-0.6,0.6-0.6,1.5,0,2.1c0.6,0.6,1.5,0.6,2.1,0l1.4-1.4l1.7,1.7c1.1,1.1,2.8,1.1,3.9,0l-0.1-0.1L13.4,19l2.7-2.7l4.9,4.9L19.6,20.6z"/>
</svg> 